<svg width="50" height="50" xmlns="http://www.w3.org/2000/svg">
 <g>
  <path stroke="null" id="svg_1" fill-rule="evenodd" fill="#6c757d" d="m0.97973,8.121986c0,-3.959478 2.740257,-7.169284 6.120521,-7.169284l35.610307,0c3.380309,0 6.120522,3.209806 6.120522,7.169284l0,26.070127c0,3.959531 -2.740213,7.169285 -6.120522,7.169285l-12.87869,0l1.669233,3.910519l4.532525,0c0.921861,0 1.669233,0.875434 1.669233,1.955259s-0.747372,1.955259 -1.669233,1.955259l-22.256442,0c-0.921884,0 -1.669233,-0.875434 -1.669233,-1.955259s0.747349,-1.955259 1.669233,-1.955259l4.532457,0l1.669234,-3.910519l-12.878624,0c-3.380264,0 -6.120521,-3.209754 -6.120521,-7.169285l0,-26.070127zm41.730828,29.328893l-35.610307,0c-1.536495,0 -2.782055,-1.458885 -2.782055,-3.258766l0,-26.070127c0,-1.799777 1.24556,-3.258765 2.782055,-3.258765l35.610307,0c1.536585,0 2.782055,1.458988 2.782055,3.258765l0,26.070127c0,1.799881 -1.24547,3.258766 -2.782055,3.258766z" clip-rule="evenodd"/>
  <g stroke="null" id="svg_195">
   <g stroke="null" transform="matrix(0.04984011952059433,0,0,0.04539475976456739,-19.921583901550374,-5.528811236080834) " id="svg_173">
    <g stroke="null" id="svg_174">
     <path fill="#6c757d" stroke="null" id="svg_175" d="m1175.26936,560.710424c-8.902,-11.658 -19.526,-21.806 -31.574,-30.165c-5.66,-3.927 -11.575,-7.416 -17.707,-10.451c0.15,-2.825 0.227,-5.653 0.227,-8.479c0,-21.506 -4.222,-42.391 -12.548,-62.075c-8.032,-18.991 -19.522,-36.038 -34.151,-50.667c-14.628,-14.629 -31.676,-26.12 -50.666,-34.152c-19.685,-8.326 -40.569,-12.547 -62.075,-12.547c-26.931,0 -53.566,6.856 -77.027,19.827c-15.181,8.393 -28.937,19.277 -40.638,32.067c-15.767,-6.682 -32.701,-10.407 -50,-10.92c-1.356,-0.041 -2.736,-0.061 -4.099,-0.061c-18.525,-0.001 -36.579,3.659 -53.667,10.881c-16.412,6.937 -31.197,16.838 -43.943,29.43c-12.772,12.617 -22.86,27.306 -29.985,43.659c-7.435,17.065 -11.288,35.156 -11.452,53.769c-0.019,2.129 0.011,4.261 0.089,6.391c-14.664,10.479 -27.188,23.793 -36.773,39.202c-13.382,21.511 -20.505,46.317 -20.599,71.735c-0.068,18.411 3.544,36.339 10.738,53.284c6.879,16.205 16.722,30.801 29.254,43.38c12.688,12.735 27.479,22.755 43.964,29.783c17.135,7.305 35.262,11.008 53.878,11.008l326.526,0c19.083,0 37.654,-3.798 55.197,-11.286c16.89,-7.21 32.032,-17.493 45.008,-30.562c12.822,-12.915 22.874,-27.898 29.878,-44.536c7.315,-17.381 10.956,-35.765 10.82,-54.643c-0.11,-15.405 -2.719,-30.549 -7.753,-45.008c-4.868,-13.984 -11.908,-27.061 -20.922,-38.864zm-112.229,182.059l-326.525,0c-51.951,0 -95.188,-42.505 -94.994,-94.456c0.135,-36.159 20.666,-67.508 50.688,-83.146c5.904,-3.075 9.255,-9.58 8.086,-16.134c-1.032,-5.781 -1.546,-11.741 -1.493,-17.83c0.465,-52.505 44.017,-95.282 96.201,-95.277c0.94,0 1.891,0.014 2.836,0.042c18.538,0.55 35.75,6.359 50.216,15.975c2.64,1.755 5.63,2.603 8.581,2.603c4.893,0 9.674,-2.333 12.554,-6.731c20.822,-31.793 56.742,-52.802 97.584,-52.802c64.397,0 116.601,52.204 116.601,116.601c0,7.964 -0.81,15.736 -2.341,23.248c-1.567,7.698 3.03,15.361 10.562,17.593c39.972,11.845 69.194,48.693 69.509,92.434c0.387,53.832 -44.231,97.88 -98.065,97.88z"/>
    </g>
    <g stroke="null" id="svg_177">
     <path fill="#6c757d" stroke="null" id="svg_178" d="m986.58936,518.128424c-8.365,-8.365 -21.928,-8.365 -30.292,0l-49.476,49.476l-49.477,-49.476c-8.365,-8.365 -21.928,-8.365 -30.292,0c-8.365,8.366 -8.365,21.928 0,30.293l49.476,49.476l-49.476,49.476c-8.365,8.365 -8.365,21.928 0,30.293c4.183,4.183 9.664,6.273 15.146,6.273c5.481,0 10.964,-2.091 15.146,-6.273l49.476,-49.476l49.477,49.476c4.182,4.183 9.664,6.273 15.146,6.273c5.482,0 10.965,-2.091 15.146,-6.273c8.365,-8.365 8.365,-21.928 0,-30.293l-49.476,-49.476l49.476,-49.476c8.365,-8.365 8.365,-21.927 0,-30.293z"/>
    </g>
   </g>
  </g>
 </g>
</svg>
