<svg width="50" height="50" xmlns="http://www.w3.org/2000/svg">
 <g>
  <path stroke="null" id="svg_1" fill-rule="evenodd" fill="#dc3545" d="m0.97973,8.121986c0,-3.959479 2.740258,-7.169285 6.120522,-7.169285l35.610307,0c3.380308,0 6.120522,3.209806 6.120522,7.169285l0,26.070126c0,3.959531 -2.740213,7.169285 -6.120522,7.169285l-12.87869,0l1.669233,3.910519l4.532524,0c0.921862,0 1.669233,0.875435 1.669233,1.955259s-0.747371,1.955259 -1.669233,1.955259l-22.256442,0c-0.921884,0 -1.669233,-0.875435 -1.669233,-1.955259s0.747349,-1.955259 1.669233,-1.955259l4.532458,0l1.669233,-3.910519l-12.878623,0c-3.380264,0 -6.120522,-3.209754 -6.120522,-7.169285l0,-26.070126zm41.730828,29.328892l-35.610307,0c-1.536496,0 -2.782055,-1.458884 -2.782055,-3.258766l0,-26.070126c0,-1.799777 1.24556,-3.258766 2.782055,-3.258766l35.610307,0c1.536585,0 2.782055,1.458989 2.782055,3.258766l0,26.070126c0,1.799882 -1.24547,3.258766 -2.782055,3.258766z" clip-rule="evenodd"/>
 </g>
</svg>
