<svg width="50" height="50" xmlns="http://www.w3.org/2000/svg">
 <g>
  <path stroke="null" id="svg_1" fill-rule="evenodd" fill="#ffc107" d="m0.97973,8.121986c0,-3.959478 2.740257,-7.169284 6.120521,-7.169284l35.610307,0c3.380309,0 6.120522,3.209806 6.120522,7.169284l0,26.070127c0,3.959531 -2.740213,7.169285 -6.120522,7.169285l-12.87869,0l1.669233,3.910519l4.532525,0c0.921861,0 1.669233,0.875434 1.669233,1.955259s-0.747372,1.955259 -1.669233,1.955259l-22.256442,0c-0.921884,0 -1.669233,-0.875434 -1.669233,-1.955259s0.747349,-1.955259 1.669233,-1.955259l4.532457,0l1.669234,-3.910519l-12.878624,0c-3.380264,0 -6.120521,-3.209754 -6.120521,-7.169285l0,-26.070127zm41.730828,29.328893l-35.610307,0c-1.536495,0 -2.782055,-1.458885 -2.782055,-3.258766l0,-26.070127c0,-1.799777 1.24556,-3.258765 2.782055,-3.258765l35.610307,0c1.536585,0 2.782055,1.458988 2.782055,3.258765l0,26.070127c0,1.799881 -1.24547,3.258766 -2.782055,3.258766z" clip-rule="evenodd"/>
  <g id="svg_168">
   <g transform="matrix(0.04601852029684772,0,0,0.04601852029684772,0,0) " id="svg_144">
    <g id="svg_145">
     <rect fill="#ffc107" id="svg_146" height="189.217" width="33.391" y="366.21399" x="449.889166"/>
    </g>
   </g>
   <g transform="matrix(0.04601852029684772,0,0,0.04601852029684772,0,0) " id="svg_147">
    <g id="svg_148">
     <path fill="#ffc107" id="svg_149" d="m533.367166,204.82299c-141.385,0 -256,114.616 -256,256s114.615,256 256,256s256,-114.616 256,-256s-114.615,-256 -256,-256zm-16.696,384l-100.174,0l0,-256l100.174,0l0,256zm133.566,0l-100.174,0l0,-256l100.174,0l0,256z"/>
    </g>
   </g>
   <g transform="matrix(0.04601852029684772,0,0,0.04601852029684772,0,0) " id="svg_150">
    <g id="svg_151">
     <rect fill="#ffc107" id="svg_152" height="189.217" width="33.391" y="366.21399" x="583.454166"/>
    </g>
   </g>
  </g>
 </g>
</svg>
