<svg width="580" height="400" xmlns="http://www.w3.org/2000/svg">
 <!-- Created with SVG Editor - http://github.com/mzalive/SVG Editor/ -->

 <g>
  <title>background</title>
  <rect fill="#fff" id="canvas_background" height="402" width="582" y="-1" x="-1"/>
  <g display="none" overflow="visible" y="0" x="0" height="100%" width="100%" id="canvasGrid">
   <rect fill="url(#gridpattern)" stroke-width="0" y="0" x="0" height="100%" width="100%"/>
  </g>
 </g>
 <g>
  <title>Layer 1</title>
  <g stroke="null" id="svg_23">
   <g stroke="null" transform="matrix(0.48127622011301663,0,0,0.5236762515976953,-1344.4961826883653,-1001.0022896010207) " id="svg_5">
    <g stroke="null" id="svg_6">
     <path fill="#999999" stroke="null" id="svg_7" d="m3590.248711,2096.303823l-384,0c-23.574,0 -42.667,19.094 -42.667,42.667l0,256c0,23.573 19.093,42.667 42.667,42.667l149.333,0l0,42.667l-42.667,0l0,42.666l170.667,0l0,-42.667l-42.667,0l0,-42.667l149.333,0c23.573,0 42.667,-19.093 42.667,-42.667l0,-255.999c0,-23.573 -19.093,-42.667 -42.666,-42.667zm0,298.667l-384,0l0,-256l384,0l0,256z"/>
    </g>
   </g>
   <g stroke="null" transform="matrix(0.48127622011301663,0,0,0.5236762515976953,-1344.4961826883653,-1001.0022896010207) " id="svg_8"/>
   <g stroke="null" transform="matrix(0.48127622011301663,0,0,0.5236762515976953,-1344.4961826883653,-1001.0022896010207) " id="svg_9"/>
   <g stroke="null" transform="matrix(0.48127622011301663,0,0,0.5236762515976953,-1344.4961826883653,-1001.0022896010207) " id="svg_10"/>
   <g stroke="null" transform="matrix(0.48127622011301663,0,0,0.5236762515976953,-1344.4961826883653,-1001.0022896010207) " id="svg_11"/>
   <g stroke="null" transform="matrix(0.48127622011301663,0,0,0.5236762515976953,-1344.4961826883653,-1001.0022896010207) " id="svg_12"/>
   <g stroke="null" transform="matrix(0.48127622011301663,0,0,0.5236762515976953,-1344.4961826883653,-1001.0022896010207) " id="svg_13"/>
   <g stroke="null" transform="matrix(0.48127622011301663,0,0,0.5236762515976953,-1344.4961826883653,-1001.0022896010207) " id="svg_14"/>
   <g stroke="null" transform="matrix(0.48127622011301663,0,0,0.5236762515976953,-1344.4961826883653,-1001.0022896010207) " id="svg_15"/>
   <g stroke="null" transform="matrix(0.48127622011301663,0,0,0.5236762515976953,-1344.4961826883653,-1001.0022896010207) " id="svg_16"/>
   <g stroke="null" transform="matrix(0.48127622011301663,0,0,0.5236762515976953,-1344.4961826883653,-1001.0022896010207) " id="svg_17"/>
   <g stroke="null" transform="matrix(0.48127622011301663,0,0,0.5236762515976953,-1344.4961826883653,-1001.0022896010207) " id="svg_18"/>
   <g stroke="null" transform="matrix(0.48127622011301663,0,0,0.5236762515976953,-1344.4961826883653,-1001.0022896010207) " id="svg_19"/>
   <g stroke="null" transform="matrix(0.48127622011301663,0,0,0.5236762515976953,-1344.4961826883653,-1001.0022896010207) " id="svg_20"/>
   <g stroke="null" transform="matrix(0.48127622011301663,0,0,0.5236762515976953,-1344.4961826883653,-1001.0022896010207) " id="svg_21"/>
   <g stroke="null" transform="matrix(0.48127622011301663,0,0,0.5236762515976953,-1344.4961826883653,-1001.0022896010207) " id="svg_22"/>
  </g>
 </g>
</svg>