<svg width="49" height="51" xmlns="http://www.w3.org/2000/svg">
 <!-- Created with SVG Editor - http://github.com/mzalive/SVG Editor/ -->

 <g>
  <title>background</title>
  <rect fill="#fff" id="canvas_background" height="53" width="51" y="-1" x="-1"/>
  <g display="none" overflow="visible" y="0" x="0" height="100%" width="100%" id="canvasGrid">
   <rect fill="url(#gridpattern)" stroke-width="0" y="0" x="0" height="100%" width="100%"/>
  </g>
 </g>
 <g>
  <title>Layer 1</title>
  <!-- Created with SVG Editor - http://github.com/mzalive/SVG Editor/ -->
  <!-- Created with SVG Editor - http://github.com/mzalive/SVG Editor/ -->
  <g stroke="null" id="svg_136">
   <g stroke="null" transform="matrix(0.16433156808346272,0,0,0.16885991283749252,-264.0309858464116,-285.23557240331735) " id="svg_133">
    <title stroke="null" transform="translate(-1.6013835668563843,-1.558439016342163) translate(-4.844137191772461,1.558439016342163) translate(0,-3.141233444213867) translate(-46.569583892822266,-29.540672302246094) translate(88.45868682861328,21.38861846923828) translate(-254.61203002929688,-218.87881469726562) translate(1684.953857421875,0) translate(0,1855.564208984375) ">background</title>
    <rect stroke="null" x="1464.78541" y="1624.392107" width="582" height="402" id="svg_131" fill="#fff"/>
    <g stroke="null" id="svg_130" display="none">
     <rect stroke="null" id="svg_134" width="49" height="51" x="1465.78541" y="1625.392107" stroke-width="0" fill="url(#gridpattern)"/>
    </g>
   </g>
   <g stroke="null" transform="matrix(0.16433156808346272,0,0,0.16885991283749252,-264.0309858464116,-285.23557240331735) " id="svg_135">
    <title stroke="null" transform="translate(-1.6013835668563843,-1.558439016342163) translate(-4.844137191772461,1.558439016342163) translate(0,-3.141233444213867) translate(-46.569583892822266,-29.540672302246094) translate(88.45868682861328,21.38861846923828) translate(-254.61203002929688,-218.87881469726562) translate(1684.953857421875,0) translate(0,1855.564208984375) ">Layer 1</title>
    <g stroke="null" id="svg_111">
     <g stroke="null" id="svg_127" transform="matrix(0.596333203028888,0,0,0.67836368353491,-1871.0180140790144,-1455.7323091349085) ">
      <g stroke="null" id="svg_128">
       <path stroke="null" d="m6273.841441,4646.337505l-384,0c-23.574,0 -42.667,19.094 -42.667,42.667l0,256c0,23.573 19.093,42.667 42.667,42.667l149.333,0l0,42.667l-42.667,0l0,42.666l170.667,0l0,-42.667l-42.667,0l0,-42.667l149.333,0c23.573,0 42.667,-19.093 42.667,-42.667l0,-255.999c0,-23.573 -19.093,-42.667 -42.666,-42.667zm0,298.667l-384,0l0,-256l384,0l0,256z" id="svg_129" fill="#ff7f00"/>
      </g>
     </g>
     <g stroke="null" id="svg_126" transform="matrix(0.596333203028888,0,0,0.67836368353491,-1871.0180140790144,-1455.7323091349085) "/>
     <g stroke="null" id="svg_125" transform="matrix(0.596333203028888,0,0,0.67836368353491,-1871.0180140790144,-1455.7323091349085) "/>
     <g stroke="null" id="svg_124" transform="matrix(0.596333203028888,0,0,0.67836368353491,-1871.0180140790144,-1455.7323091349085) "/>
     <g stroke="null" id="svg_123" transform="matrix(0.596333203028888,0,0,0.67836368353491,-1871.0180140790144,-1455.7323091349085) "/>
     <g stroke="null" id="svg_122" transform="matrix(0.596333203028888,0,0,0.67836368353491,-1871.0180140790144,-1455.7323091349085) "/>
     <g stroke="null" id="svg_121" transform="matrix(0.596333203028888,0,0,0.67836368353491,-1871.0180140790144,-1455.7323091349085) "/>
     <g stroke="null" id="svg_120" transform="matrix(0.596333203028888,0,0,0.67836368353491,-1871.0180140790144,-1455.7323091349085) "/>
     <g stroke="null" id="svg_119" transform="matrix(0.596333203028888,0,0,0.67836368353491,-1871.0180140790144,-1455.7323091349085) "/>
     <g stroke="null" id="svg_118" transform="matrix(0.596333203028888,0,0,0.67836368353491,-1871.0180140790144,-1455.7323091349085) "/>
     <g stroke="null" id="svg_117" transform="matrix(0.596333203028888,0,0,0.67836368353491,-1871.0180140790144,-1455.7323091349085) "/>
     <g stroke="null" id="svg_116" transform="matrix(0.596333203028888,0,0,0.67836368353491,-1871.0180140790144,-1455.7323091349085) "/>
     <g stroke="null" id="svg_115" transform="matrix(0.596333203028888,0,0,0.67836368353491,-1871.0180140790144,-1455.7323091349085) "/>
     <g stroke="null" id="svg_114" transform="matrix(0.596333203028888,0,0,0.67836368353491,-1871.0180140790144,-1455.7323091349085) "/>
     <g stroke="null" id="svg_113" transform="matrix(0.596333203028888,0,0,0.67836368353491,-1871.0180140790144,-1455.7323091349085) "/>
     <g stroke="null" id="svg_112" transform="matrix(0.596333203028888,0,0,0.67836368353491,-1871.0180140790144,-1455.7323091349085) "/>
    </g>
    <g stroke="null" id="svg_92">
     <g stroke="null" id="svg_108" transform="matrix(3.7808454917573893,0,0,2.9707357485111245,72.718039931965,19.03308844637995) ">
      <path stroke="null" d="m439.344338,620.174326c0,3.662 -2.969,6.631 -6.631,6.631l0,0c-3.662,0 -6.631,-2.969 -6.631,-6.631l0,-34.345c0,-3.662 2.969,-6.631 6.631,-6.631l0,0c3.662,0 6.631,2.969 6.631,6.631l0,34.345z" id="svg_110" fill="#ff7f00"/>
      <path stroke="null" d="m464.230338,620.174326c0,3.662 -2.969,6.631 -6.631,6.631l0,0c-3.662,0 -6.631,-2.969 -6.631,-6.631l0,-34.345c0.001,-3.662 2.97,-6.631 6.631,-6.631l0,0c3.662,0 6.631,2.969 6.631,6.631l0,34.345z" id="svg_109" fill="#ff7f00"/>
     </g>
     <g stroke="null" id="svg_107" transform="matrix(3.7808454917573893,0,0,2.9707357485111245,72.718039931965,19.03308844637995) "/>
     <g stroke="null" id="svg_106" transform="matrix(3.7808454917573893,0,0,2.9707357485111245,72.718039931965,19.03308844637995) "/>
     <g stroke="null" id="svg_105" transform="matrix(3.7808454917573893,0,0,2.9707357485111245,72.718039931965,19.03308844637995) "/>
     <g stroke="null" id="svg_104" transform="matrix(3.7808454917573893,0,0,2.9707357485111245,72.718039931965,19.03308844637995) "/>
     <g stroke="null" id="svg_103" transform="matrix(3.7808454917573893,0,0,2.9707357485111245,72.718039931965,19.03308844637995) "/>
     <g stroke="null" id="svg_102" transform="matrix(3.7808454917573893,0,0,2.9707357485111245,72.718039931965,19.03308844637995) "/>
     <g stroke="null" id="svg_101" transform="matrix(3.7808454917573893,0,0,2.9707357485111245,72.718039931965,19.03308844637995) "/>
     <g stroke="null" id="svg_100" transform="matrix(3.7808454917573893,0,0,2.9707357485111245,72.718039931965,19.03308844637995) "/>
     <g stroke="null" id="svg_99" transform="matrix(3.7808454917573893,0,0,2.9707357485111245,72.718039931965,19.03308844637995) "/>
     <g stroke="null" id="svg_98" transform="matrix(3.7808454917573893,0,0,2.9707357485111245,72.718039931965,19.03308844637995) "/>
     <g stroke="null" id="svg_97" transform="matrix(3.7808454917573893,0,0,2.9707357485111245,72.718039931965,19.03308844637995) "/>
     <g stroke="null" id="svg_96" transform="matrix(3.7808454917573893,0,0,2.9707357485111245,72.718039931965,19.03308844637995) "/>
     <g stroke="null" id="svg_95" transform="matrix(3.7808454917573893,0,0,2.9707357485111245,72.718039931965,19.03308844637995) "/>
     <g stroke="null" id="svg_94" transform="matrix(3.7808454917573893,0,0,2.9707357485111245,72.718039931965,19.03308844637995) "/>
     <g stroke="null" id="svg_93" transform="matrix(3.7808454917573893,0,0,2.9707357485111245,72.718039931965,19.03308844637995) "/>
    </g>
   </g>
  </g>
 </g>
</svg>