<svg width="49" height="51" xmlns="http://www.w3.org/2000/svg">
    <g>
        <g stroke="null" id="svg_136">
            <g stroke="null"
               transform="matrix(0.16433156808346272,0,0,0.16885991283749252,-264.0309858464116,-285.23557240331735) "
               id="svg_133">
                <rect stroke="null" x="1464.78541" y="1624.392107" width="582" height="402" id="svg_131" fill="none"/>
                <g stroke="null" id="svg_130" display="none">
                    <rect stroke="null" id="svg_134" width="49" height="51" x="1465.78541" y="1625.392107"
                          stroke-width="0" fill="url(#gridpattern)"/>
                </g>
            </g>
            <g stroke="null"
               transform="matrix(0.16433156808346272,0,0,0.16885991283749252,-264.0309858464116,-285.23557240331735) "
               id="svg_135">
                <g stroke="null" id="svg_111">
                    <g stroke="null" id="svg_127"
                       transform="matrix(0.596333203028888,0,0,0.67836368353491,-1871.0180140790144,-1455.7323091349085) ">
                        <g stroke="null" id="svg_128">
                            <path stroke="null"
                                  d="m6273.841441,4646.337505l-384,0c-23.574,0 -42.667,19.094 -42.667,42.667l0,256c0,23.573 19.093,42.667 42.667,42.667l149.333,0l0,42.667l-42.667,0l0,42.666l170.667,0l0,-42.667l-42.667,0l0,-42.667l149.333,0c23.573,0 42.667,-19.093 42.667,-42.667l0,-255.999c0,-23.573 -19.093,-42.667 -42.666,-42.667zm0,298.667l-384,0l0,-256l384,0l0,256z"
                                  id="svg_129" fill="#ff7f00"/>
                        </g>
                    </g>
                </g>
                <g stroke="null" id="svg_92">
                    <g stroke="null" id="svg_108"
                       transform="matrix(3.7808454917573893,0,0,2.9707357485111245,72.718039931965,19.03308844637995) ">
                        <path stroke="null"
                              d="m439.344338,620.174326c0,3.662 -2.969,6.631 -6.631,6.631l0,0c-3.662,0 -6.631,-2.969 -6.631,-6.631l0,-34.345c0,-3.662 2.969,-6.631 6.631,-6.631l0,0c3.662,0 6.631,2.969 6.631,6.631l0,34.345z"
                              id="svg_110" fill="#ff7f00"/>
                        <path stroke="null"
                              d="m464.230338,620.174326c0,3.662 -2.969,6.631 -6.631,6.631l0,0c-3.662,0 -6.631,-2.969 -6.631,-6.631l0,-34.345c0.001,-3.662 2.97,-6.631 6.631,-6.631l0,0c3.662,0 6.631,2.969 6.631,6.631l0,34.345z"
                              id="svg_109" fill="#ff7f00"/>
                    </g>
                </g>
            </g>
        </g>
    </g>
</svg>
