<svg width="49" height="51" xmlns="http://www.w3.org/2000/svg">
    <g>
        <g stroke="null" id="svg_49">
            <g stroke="null"
               transform="matrix(0.19803456956515564,0,0,0.21748425559160223,-315.48553560439973,-351.6922629702607) "
               id="svg_46">
                <rect stroke="null" x="1423.256347" y="1524.993774" width="582" height="402" id="svg_44" fill="none"/>
                <g stroke="null" id="svg_43" display="none">
                    <rect stroke="null" id="svg_47" width="60" height="60" x="1424.256347" y="1525.993774"
                          stroke-width="0" fill="url(#gridpattern)"/>
                </g>
            </g>
            <g stroke="null"
               transform="matrix(0.19803456956515564,0,0,0.21748425559160223,-315.48553560439973,-351.6922629702607) "
               id="svg_48">
                <g stroke="null" id="svg_24">
                    <g stroke="null" id="svg_40"
                       transform="matrix(0.48127622011301663,0,0,0.5236762515976953,-1344.4961826883653,-1001.0022896010207) ">
                        <g stroke="null" id="svg_41">
                            <path stroke="null"
                                  d="m6549.58129,5010.306065l-384,0c-23.574,0 -42.667,19.094 -42.667,42.667l0,256c0,23.573 19.093,42.667 42.667,42.667l149.333,0l0,42.667l-42.667,0l0,42.666l170.667,0l0,-42.667l-42.667,0l0,-42.667l149.333,0c23.573,0 42.667,-19.093 42.667,-42.667l0,-255.999c0,-23.573 -19.093,-42.667 -42.666,-42.667zm0,298.667l-384,0l0,-256l384,0l0,256z"
                                  id="svg_42" fill="#999999"/>
                        </g>
                    </g>
                </g>
            </g>
        </g>
    </g>
</svg>
