<svg width="49" height="51" xmlns="http://www.w3.org/2000/svg">
 <!-- Created with SVG Editor - http://github.com/mzalive/SVG Editor/ -->

 <g>
  <title>background</title>
  <rect fill="#fff" id="canvas_background" height="53" width="51" y="-1" x="-1"/>
  <g display="none" overflow="visible" y="0" x="0" height="100%" width="100%" id="canvasGrid">
   <rect fill="url(#gridpattern)" stroke-width="0" y="0" x="0" height="100%" width="100%"/>
  </g>
 </g>
 <g>
  <title>Layer 1</title>
  <!-- Created with SVG Editor - http://github.com/mzalive/SVG Editor/ -->
  <g stroke="null" id="svg_49">
   <g stroke="null" transform="matrix(0.19803456956515564,0,0,0.21748425559160223,-315.48553560439973,-351.6922629702607) " id="svg_46">
    <title stroke="null" transform="translate(0,-1.2100088596343994) translate(0,1.2100088596343994) translate(-2.65769624710083,-2.420017719268799) translate(0,-1.2100088596343994) translate(-1.328848123550415,-8.470062255859375) translate(2.2737367544323206e-13,1.1577374935150146) translate(2.65769624710083,1.1577374935150146) translate(-1.328848123550415,3.473212242126465) translate(-10.63078498840332,-13.89284896850586) translate(0.00001926278491737321,0) translate(0.00001926278491737321,0) translate(-0.5315950512886047,0) translate(-2.65769624710083,-1.1577374935150146) translate(-10.63078498840332,-4.630949974060059) translate(2.2737367544323206e-13,-10.998523712158203) translate(-1.328848123550415,0) translate(2.2737367544323206e-13,8.683091163635254) translate(-0.5493553280830383,0) translate(1.328848123550415,9.261899948120117) translate(-5.31539249420166,-2.1893696784973145) translate(1457.2296142578125,0) translate(0,1547.2296142578125) ">background</title>
    <rect stroke="null" x="1423.256347" y="1524.993774" width="582" height="402" id="svg_44" fill="#fff"/>
    <g stroke="null" id="svg_43" display="none">
     <rect stroke="null" id="svg_47" width="60" height="60" x="1424.256347" y="1525.993774" stroke-width="0" fill="url(#gridpattern)"/>
    </g>
   </g>
   <g stroke="null" transform="matrix(0.19803456956515564,0,0,0.21748425559160223,-315.48553560439973,-351.6922629702607) " id="svg_48">
    <title stroke="null" transform="translate(0,-1.2100088596343994) translate(0,1.2100088596343994) translate(-2.65769624710083,-2.420017719268799) translate(0,-1.2100088596343994) translate(-1.328848123550415,-8.470062255859375) translate(2.2737367544323206e-13,1.1577374935150146) translate(2.65769624710083,1.1577374935150146) translate(-1.328848123550415,3.473212242126465) translate(-10.63078498840332,-13.89284896850586) translate(0.00001926278491737321,0) translate(0.00001926278491737321,0) translate(-0.5315950512886047,0) translate(-2.65769624710083,-1.1577374935150146) translate(-10.63078498840332,-4.630949974060059) translate(2.2737367544323206e-13,-10.998523712158203) translate(-1.328848123550415,0) translate(2.2737367544323206e-13,8.683091163635254) translate(-0.5493553280830383,0) translate(1.328848123550415,9.261899948120117) translate(-5.31539249420166,-2.1893696784973145) translate(1457.2296142578125,0) translate(0,1547.2296142578125) ">Layer 1</title>
    <g stroke="null" id="svg_24">
     <g stroke="null" id="svg_40" transform="matrix(0.48127622011301663,0,0,0.5236762515976953,-1344.4961826883653,-1001.0022896010207) ">
      <g stroke="null" id="svg_41">
       <path stroke="null" d="m6549.58129,5010.306065l-384,0c-23.574,0 -42.667,19.094 -42.667,42.667l0,256c0,23.573 19.093,42.667 42.667,42.667l149.333,0l0,42.667l-42.667,0l0,42.666l170.667,0l0,-42.667l-42.667,0l0,-42.667l149.333,0c23.573,0 42.667,-19.093 42.667,-42.667l0,-255.999c0,-23.573 -19.093,-42.667 -42.666,-42.667zm0,298.667l-384,0l0,-256l384,0l0,256z" id="svg_42" fill="#999999"/>
      </g>
     </g>
     <g stroke="null" id="svg_39" transform="matrix(0.48127622011301663,0,0,0.5236762515976953,-1344.4961826883653,-1001.0022896010207) "/>
     <g stroke="null" id="svg_38" transform="matrix(0.48127622011301663,0,0,0.5236762515976953,-1344.4961826883653,-1001.0022896010207) "/>
     <g stroke="null" id="svg_37" transform="matrix(0.48127622011301663,0,0,0.5236762515976953,-1344.4961826883653,-1001.0022896010207) "/>
     <g stroke="null" id="svg_36" transform="matrix(0.48127622011301663,0,0,0.5236762515976953,-1344.4961826883653,-1001.0022896010207) "/>
     <g stroke="null" id="svg_35" transform="matrix(0.48127622011301663,0,0,0.5236762515976953,-1344.4961826883653,-1001.0022896010207) "/>
     <g stroke="null" id="svg_34" transform="matrix(0.48127622011301663,0,0,0.5236762515976953,-1344.4961826883653,-1001.0022896010207) "/>
     <g stroke="null" id="svg_33" transform="matrix(0.48127622011301663,0,0,0.5236762515976953,-1344.4961826883653,-1001.0022896010207) "/>
     <g stroke="null" id="svg_32" transform="matrix(0.48127622011301663,0,0,0.5236762515976953,-1344.4961826883653,-1001.0022896010207) "/>
     <g stroke="null" id="svg_31" transform="matrix(0.48127622011301663,0,0,0.5236762515976953,-1344.4961826883653,-1001.0022896010207) "/>
     <g stroke="null" id="svg_30" transform="matrix(0.48127622011301663,0,0,0.5236762515976953,-1344.4961826883653,-1001.0022896010207) "/>
     <g stroke="null" id="svg_29" transform="matrix(0.48127622011301663,0,0,0.5236762515976953,-1344.4961826883653,-1001.0022896010207) "/>
     <g stroke="null" id="svg_28" transform="matrix(0.48127622011301663,0,0,0.5236762515976953,-1344.4961826883653,-1001.0022896010207) "/>
     <g stroke="null" id="svg_27" transform="matrix(0.48127622011301663,0,0,0.5236762515976953,-1344.4961826883653,-1001.0022896010207) "/>
     <g stroke="null" id="svg_26" transform="matrix(0.48127622011301663,0,0,0.5236762515976953,-1344.4961826883653,-1001.0022896010207) "/>
     <g stroke="null" id="svg_25" transform="matrix(0.48127622011301663,0,0,0.5236762515976953,-1344.4961826883653,-1001.0022896010207) "/>
    </g>
   </g>
  </g>
 </g>
</svg>