<svg width="580" height="400" xmlns="http://www.w3.org/2000/svg">
 <!-- Created with SVG Editor - http://github.com/mzalive/SVG Editor/ -->

 <g>
  <title>background</title>
  <rect fill="#fff" id="canvas_background" height="402" width="582" y="-1" x="-1"/>
  <g display="none" overflow="visible" y="0" x="0" height="100%" width="100%" id="canvasGrid">
   <rect fill="url(#gridpattern)" stroke-width="0" y="0" x="0" height="100%" width="100%"/>
  </g>
 </g>
 <g>
  <title>Layer 1</title>
  <g stroke="null" id="svg_23">
   <g stroke="null" transform="matrix(0.596333203028888,0,0,0.67836368353491,-1871.0180140790144,-1455.7323091349085) " id="svg_5">
    <g stroke="null" id="svg_6">
     <path fill="#ff7f00" stroke="null" id="svg_7" d="m3815.844099,2250.289358l-384,0c-23.574,0 -42.667,19.094 -42.667,42.667l0,256c0,23.573 19.093,42.667 42.667,42.667l149.333,0l0,42.667l-42.667,0l0,42.666l170.667,0l0,-42.667l-42.667,0l0,-42.667l149.333,0c23.573,0 42.667,-19.093 42.667,-42.667l0,-255.999c0,-23.573 -19.093,-42.667 -42.666,-42.667zm0,298.667l-384,0l0,-256l384,0l0,256z"/>
    </g>
   </g>
   <g stroke="null" transform="matrix(0.596333203028888,0,0,0.67836368353491,-1871.0180140790144,-1455.7323091349085) " id="svg_8"/>
   <g stroke="null" transform="matrix(0.596333203028888,0,0,0.67836368353491,-1871.0180140790144,-1455.7323091349085) " id="svg_9"/>
   <g stroke="null" transform="matrix(0.596333203028888,0,0,0.67836368353491,-1871.0180140790144,-1455.7323091349085) " id="svg_10"/>
   <g stroke="null" transform="matrix(0.596333203028888,0,0,0.67836368353491,-1871.0180140790144,-1455.7323091349085) " id="svg_11"/>
   <g stroke="null" transform="matrix(0.596333203028888,0,0,0.67836368353491,-1871.0180140790144,-1455.7323091349085) " id="svg_12"/>
   <g stroke="null" transform="matrix(0.596333203028888,0,0,0.67836368353491,-1871.0180140790144,-1455.7323091349085) " id="svg_13"/>
   <g stroke="null" transform="matrix(0.596333203028888,0,0,0.67836368353491,-1871.0180140790144,-1455.7323091349085) " id="svg_14"/>
   <g stroke="null" transform="matrix(0.596333203028888,0,0,0.67836368353491,-1871.0180140790144,-1455.7323091349085) " id="svg_15"/>
   <g stroke="null" transform="matrix(0.596333203028888,0,0,0.67836368353491,-1871.0180140790144,-1455.7323091349085) " id="svg_16"/>
   <g stroke="null" transform="matrix(0.596333203028888,0,0,0.67836368353491,-1871.0180140790144,-1455.7323091349085) " id="svg_17"/>
   <g stroke="null" transform="matrix(0.596333203028888,0,0,0.67836368353491,-1871.0180140790144,-1455.7323091349085) " id="svg_18"/>
   <g stroke="null" transform="matrix(0.596333203028888,0,0,0.67836368353491,-1871.0180140790144,-1455.7323091349085) " id="svg_19"/>
   <g stroke="null" transform="matrix(0.596333203028888,0,0,0.67836368353491,-1871.0180140790144,-1455.7323091349085) " id="svg_20"/>
   <g stroke="null" transform="matrix(0.596333203028888,0,0,0.67836368353491,-1871.0180140790144,-1455.7323091349085) " id="svg_21"/>
   <g stroke="null" transform="matrix(0.596333203028888,0,0,0.67836368353491,-1871.0180140790144,-1455.7323091349085) " id="svg_22"/>
  </g>
  <g stroke="null" id="svg_46">
   <g stroke="null" transform="matrix(3.7808454917573893,0,0,2.9707357485111245,72.718039931965,19.03308844637995) " id="svg_28">
    <path fill="#ff7f00" stroke="null" id="svg_29" d="m51.657143,73.039779c0,3.662 -2.969,6.631 -6.631,6.631l0,0c-3.662,0 -6.631,-2.969 -6.631,-6.631l0,-34.345c0,-3.662 2.969,-6.631 6.631,-6.631l0,0c3.662,0 6.631,2.969 6.631,6.631l0,34.345z"/>
    <path fill="#ff7f00" stroke="null" id="svg_30" d="m76.543143,73.039779c0,3.662 -2.969,6.631 -6.631,6.631l0,0c-3.662,0 -6.631,-2.969 -6.631,-6.631l0,-34.345c0.001,-3.662 2.97,-6.631 6.631,-6.631l0,0c3.662,0 6.631,2.969 6.631,6.631l0,34.345z"/>
   </g>
   <g stroke="null" transform="matrix(3.7808454917573893,0,0,2.9707357485111245,72.718039931965,19.03308844637995) " id="svg_31"/>
   <g stroke="null" transform="matrix(3.7808454917573893,0,0,2.9707357485111245,72.718039931965,19.03308844637995) " id="svg_32"/>
   <g stroke="null" transform="matrix(3.7808454917573893,0,0,2.9707357485111245,72.718039931965,19.03308844637995) " id="svg_33"/>
   <g stroke="null" transform="matrix(3.7808454917573893,0,0,2.9707357485111245,72.718039931965,19.03308844637995) " id="svg_34"/>
   <g stroke="null" transform="matrix(3.7808454917573893,0,0,2.9707357485111245,72.718039931965,19.03308844637995) " id="svg_35"/>
   <g stroke="null" transform="matrix(3.7808454917573893,0,0,2.9707357485111245,72.718039931965,19.03308844637995) " id="svg_36"/>
   <g stroke="null" transform="matrix(3.7808454917573893,0,0,2.9707357485111245,72.718039931965,19.03308844637995) " id="svg_37"/>
   <g stroke="null" transform="matrix(3.7808454917573893,0,0,2.9707357485111245,72.718039931965,19.03308844637995) " id="svg_38"/>
   <g stroke="null" transform="matrix(3.7808454917573893,0,0,2.9707357485111245,72.718039931965,19.03308844637995) " id="svg_39"/>
   <g stroke="null" transform="matrix(3.7808454917573893,0,0,2.9707357485111245,72.718039931965,19.03308844637995) " id="svg_40"/>
   <g stroke="null" transform="matrix(3.7808454917573893,0,0,2.9707357485111245,72.718039931965,19.03308844637995) " id="svg_41"/>
   <g stroke="null" transform="matrix(3.7808454917573893,0,0,2.9707357485111245,72.718039931965,19.03308844637995) " id="svg_42"/>
   <g stroke="null" transform="matrix(3.7808454917573893,0,0,2.9707357485111245,72.718039931965,19.03308844637995) " id="svg_43"/>
   <g stroke="null" transform="matrix(3.7808454917573893,0,0,2.9707357485111245,72.718039931965,19.03308844637995) " id="svg_44"/>
   <g stroke="null" transform="matrix(3.7808454917573893,0,0,2.9707357485111245,72.718039931965,19.03308844637995) " id="svg_45"/>
  </g>
 </g>
</svg>